<svg xmlns="http://www.w3.org/2000/svg" xmlns:xlink="http://www.w3.org/1999/xlink" version="1.1" enable-background="new 0 0 1000 1000" xml:space="preserve" width="1000" height="1000" style=""><rect id="backgroundrect" width="100%" height="100%" x="0" y="0" fill="none" stroke="none"/>
<metadata> Svg Vector Icons : http://www.onlinewebfonts.com/icon </metadata>

<g class="currentLayer" style=""><title>Layer 1</title><g id="svg_1" class="selected" fill-opacity="1" fill="#ddca87"><g transform="translate(0,511) scale(0.10000000149011612,-0.10000000149011612) " id="svg_2" fill="#ddca87"><path d="M4769.2,5008.9C2779.9,4906.8,1027.5,3591.6,368.9,1706.3C95.4,922.5,28,52.1,178.2-766.4c198.3-1091.9,795.3-2120.2,1642.6-2840.4C2932-4548.5,4339.7-4951,5755.2-4733.4c1323,204.1,2532.3,980.2,3306.5,2118.3c1028.3,1513.6,1116.9,3464.4,231.1,5074.3C8524.3,3853.5,7116.6,4802.9,5549.1,4980C5346.9,5003.1,4948.3,5016.6,4769.2,5008.9z M5674.3,4683.5c494.9-75.1,943.6-215.7,1386.5-435.2c1373.1-681.7,2280.1-1937.3,2517-3483.6c46.2-310,46.2-1001.4,0-1309.5c-80.9-519.9-219.5-964.8-439.1-1405.8c-238.8-481.4-498.8-843.5-866.6-1211.3C7567.3-3866.8,6683.4-4307.8,5655-4467.6c-308.1-46.2-999.4-46.2-1309.5,0c-843.5,129-1627.2,469.9-2264.7,984.1c-887.8,716.4-1477,1760.1-1658.1,2938.7c-46.2,308.1-46.2,1001.4,0,1309.5c157.9,1028.3,597,1910.3,1303.7,2619c776.1,774.1,1771.7,1232.5,2907.9,1336.5C4813.5,4735.5,5479.8,4712.3,5674.3,4683.5z" id="svg_3" fill="#ddca87"/><path d="M4805.8,1991.3c-288.9-238.8-489.1-527.7-620.1-889.7c-25-73.2-53.9-169.5-59.7-211.8c-23.1-130.9-27-132.9-186.8-67.4c-335.1,140.6-783.8,190.6-1122.7,127.1c-244.6-46.2-313.9-79-338.9-156c-44.3-134.8,38.5-616.2,152.1-882c23.1-52,40.4-96.3,40.4-102.1c0-3.8-46.2-30.8-100.1-57.8c-171.4-86.7-325.4-200.3-493-362c-175.2-169.5-225.3-242.6-208-308.1c17.3-71.3,190.6-285,354.3-437.1c261.9-242.6,597-414,951.3-487.2c184.9-38.5,541.1-40.4,731.8-3.9c365.9,69.3,720.2,246.5,982.1,491.1l113.6,104l90.5-86.7c261.9-250.4,633.6-439.1,995.6-506.5c258.1-48.1,652.8-32.7,885.8,36.6c354.3,105.9,666.3,298.5,914.7,562.3c132.9,142.5,250.3,304.3,250.3,348.6c0,59.7-63.5,142.5-234.9,306.2C7742.5-439,7677-392.8,7351.6-204c-21.2,13.5-15.4,38.5,25,134.8c77,182.9,125.2,383.2,146.3,595c23.1,254.2,5.8,321.6-94.4,360.1c-356.3,144.4-995.6,107.8-1407.7-77L5897.7,753l-42.4,165.6c-109.8,437.1-358.2,826.1-697.1,1093.8C5013.8,2124.2,4965.6,2122.2,4805.8,1991.3z M5167.8,1623.5c209.9-223.4,335.1-446.8,412.1-733.7c57.8-217.6,59.7-587.3,1.9-824.2c-77-313.9-231.1-581.6-464.1-810.8l-117.5-115.5L4929-803c-236.9,190.7-460.2,571.9-529.6,905.1c-30.8,156-36.6,234.9-28.9,441c11.6,275.4,40.4,408.3,138.7,620.1c90.5,196.4,190.6,338.9,342.8,491.1C5004.1,1808.3,4996.4,1808.3,5167.8,1623.5z M3621.4,639.4c96.3-27,234.9-82.8,308.1-121.3l136.7-71.3l13.5-146.4c38.5-417.9,204.1-810.7,483.3-1136.2L4688.3-982l-132.9-13.5c-824.2-75.1-1634.9,554.6-1779.4,1384.6c-38.5,229.2-38.5,256.1,15.4,269.6C3036,720.3,3369.2,712.6,3621.4,639.4z M7060.8,687.6c221.5-36.6,211.8-19.3,163.7-298.5c-63.5-358.2-225.3-649-510.3-920.5c-273.4-260-602.7-416-962.9-456.4c-167.5-19.3-442.9-7.7-442.9,19.3c0,5.8,27,36.6,59.7,69.3c238.8,227.2,464.1,679.8,518,1038c48.1,329.3,34.7,300.4,163.7,369.7C6350.2,672.2,6733.4,739.6,7060.8,687.6z M2930.1-581.5c342.8-412.1,841.5-658.6,1396.2-691.3l221.5-13.5l-115.5-71.3c-271.5-163.7-546.9-236.9-885.8-235c-389,1.9-722.1,111.7-1012.9,331.2c-130.9,100.1-344.7,323.5-344.7,362c0,23.1,142.5,159.8,256.1,246.5c67.4,52,337,202.2,362,204.1C2814.6-448.6,2868.5-508.3,2930.1-581.5z M7326.6-514.1c144.4-73.2,325.5-204.1,425.6-308.1l65.5-67.4l-53.9-78.9c-69.3-100.1-231.1-248.4-381.3-350.5c-269.6-182.9-566.2-271.5-928.2-273.5c-338.9-1.9-614.3,71.3-885.8,235l-115.5,71.3l221.5,13.5c560.4,32.7,1026.4,263.8,1398.1,695.2c61.7,71.3,113.6,129,117.5,129C7193.7-448.6,7255.3-477.5,7326.6-514.1z" id="svg_4" fill="#ddca87"/></g></g></g></svg>